<svg width="63" height="27" viewBox="0 0 63 27" fill="none" xmlns="http://www.w3.org/2000/svg">
<g opacity="0.9">
<mask id="mask0_7_578" style="mask-type:luminance" maskUnits="userSpaceOnUse" x="29" y="1" width="34" height="26">
<path fill-rule="evenodd" clip-rule="evenodd" d="M29.0876 1.27979H62.8115V26.9156H29.0876V1.27979Z" fill="white"/>
</mask>
<g mask="url(#mask0_7_578)">
<path fill-rule="evenodd" clip-rule="evenodd" d="M57.7409 14.5524C57.7243 14.5373 57.7077 14.5226 57.6911 14.5075C57.6316 14.5147 57.5558 14.5022 57.5153 14.5331C57.4021 14.6194 57.2823 14.7095 57.2023 14.8229C56.9647 15.159 57.0184 15.2649 57.433 15.326C57.4418 15.3275 57.4515 15.3211 57.5014 15.3064C57.5763 15.0697 57.6586 14.8112 57.7409 14.5524ZM50.1631 14.7796C49.7026 14.8067 48.6876 15.7857 48.6872 16.2032C49.1601 16.0698 50.0689 15.1933 50.1631 14.7796ZM55.716 18.0435C55.969 17.8495 57.1401 16.0833 57.1942 15.8132C57.0176 15.7144 56.8059 15.6331 56.8198 15.3474C56.5741 15.6949 55.7268 17.7711 55.716 18.0435ZM43.0676 16.5434C43.0595 16.5329 43.051 16.5227 43.0425 16.5122C42.9582 16.5318 42.8736 16.548 42.7906 16.5709C41.2215 17.0103 39.7051 17.5849 38.233 18.2692C36.222 19.2041 34.3215 20.3119 32.6172 21.7204C31.8862 22.3252 31.2004 22.9737 30.6553 23.7488C30.306 24.2455 30.0448 24.7756 29.9969 25.3891C29.9741 25.6883 30.0788 25.9027 30.3612 26.0395C30.7658 26.2362 31.1927 26.2633 31.6308 26.2218C32.5052 26.1389 33.3046 25.8277 34.0811 25.452C35.1069 24.9554 36.057 24.3408 36.9653 23.6633C38.0255 22.8731 39.027 22.02 39.9098 21.0403C40.9337 19.9031 41.8053 18.6607 42.5858 17.3555C42.7473 17.0857 42.9068 16.814 43.0676 16.5434ZM29.6735 18.874C29.7728 18.8213 29.8563 18.7975 29.91 18.7448C30.0672 18.5899 30.2395 18.4399 30.3589 18.2591C30.8511 17.5111 31.3476 16.7642 31.8031 15.9948C32.9734 14.0177 34.1132 12.0236 35.282 10.0457C36.3325 8.26752 37.4746 6.547 38.7983 4.94706C39.5594 4.02688 40.3785 3.15946 41.3432 2.4341C42.0051 1.93633 42.7129 1.51996 43.5413 1.34022C44.2097 1.19552 44.8186 1.29952 45.3344 1.77355C45.7837 2.18654 46.0549 2.70428 46.2566 3.26045C46.6217 4.26616 46.7527 5.31181 46.7971 6.37065C46.8485 7.59529 46.6766 8.80109 46.4579 10.0009C46.1125 11.894 45.4711 13.6955 44.6536 15.4405C44.6362 15.4771 44.6227 15.5159 44.5968 15.5792C44.8978 15.5106 45.1686 15.4394 45.4441 15.3881C46.5166 15.1888 47.5903 14.9947 48.6644 14.8026C48.7838 14.7811 48.8785 14.7434 48.9639 14.6515C49.2525 14.3425 49.5805 14.0885 49.9978 13.9513C50.2169 13.8798 50.3865 13.9257 50.5464 14.0697C50.8636 14.3538 50.9073 14.6974 50.7709 15.0746C50.5804 15.6022 50.2528 16.0415 49.8328 16.4172C49.7111 16.5261 49.5813 16.629 49.4445 16.7198C49.1111 16.9421 48.7672 17.1426 48.3256 17.0423C48.1707 17.496 48.1409 17.9531 48.2178 18.4124C48.2588 18.6581 48.5578 18.8424 48.8793 18.8665C49.3665 18.9038 49.8355 18.8186 50.2825 18.6411C51.9203 17.9908 53.5129 17.2511 55.0232 16.3501C55.2346 16.2243 55.391 16.0611 55.5015 15.8324C55.794 15.2261 56.1796 14.6775 56.683 14.2144C56.7186 14.182 56.7553 14.1507 56.7935 14.1205C56.8082 14.1096 56.8279 14.1047 56.855 14.0919C56.9125 14.1292 56.9732 14.1676 57.0404 14.2106C57.1316 14.1398 57.2174 14.0629 57.3136 14.0011C57.5863 13.8247 57.8263 13.8963 57.9426 14.1993C58.0759 14.5452 58.0368 14.9009 57.9638 15.254C57.9565 15.2909 57.9445 15.3275 57.9391 15.3644C57.9368 15.3768 57.9464 15.3911 57.9565 15.4202C58.0179 15.4232 58.084 15.4292 58.1501 15.4281C59.6001 15.4028 61.0451 15.2947 62.487 15.1481C62.5844 15.1383 62.6948 15.107 62.7598 15.2223C62.866 15.4104 62.8088 15.546 62.5913 15.5686C61.7618 15.6553 60.9326 15.7446 60.1012 15.809C59.3188 15.8693 58.5341 15.8991 57.7301 15.9432C57.6192 16.1715 57.501 16.4259 57.3723 16.6757C56.9937 17.4116 56.5946 18.1373 56.0907 18.7998C55.9146 19.0315 55.7021 19.2373 55.4934 19.443C55.4018 19.5327 55.2593 19.6303 55.1441 19.5496C55.0707 19.4984 55.0761 19.3398 55.0472 19.229C55.0441 19.2158 55.0452 19.2 55.0491 19.1864C55.1071 18.9758 55.0383 18.8171 54.8683 18.6747C54.8069 18.6238 54.7786 18.5085 54.7759 18.4218C54.7636 17.9844 54.8648 17.5627 54.9784 17.1437C54.9962 17.0766 55.0128 17.0096 55.002 16.9214C54.9502 16.9523 54.8992 16.9839 54.8474 17.0148C53.307 17.9316 51.6993 18.7139 50.0055 19.3251C49.6354 19.4588 49.2521 19.4713 48.865 19.4309C48.5972 19.4034 48.3666 19.2829 48.236 19.0598C48.071 18.7772 47.9083 18.481 47.8195 18.1705C47.6232 17.4843 47.7546 16.8102 48.0173 16.1613C48.1239 15.8968 48.2707 15.6478 48.3994 15.3923C48.4183 15.355 48.4376 15.318 48.4724 15.2517C48.2193 15.2962 47.9941 15.3275 47.7727 15.3761C46.6832 15.6135 45.5948 15.8573 44.5052 16.0943C44.3565 16.1267 44.2583 16.19 44.1869 16.3287C43.508 17.6381 42.7388 18.8947 41.8498 20.0806C40.6717 21.6519 39.3589 23.1015 37.7246 24.2379C36.2552 25.2595 34.663 26.0636 32.9437 26.6126C32.3309 26.8085 31.7038 26.948 31.0478 26.9091C30.5587 26.8801 29.9463 26.5463 29.8064 25.9272C29.7794 25.807 29.7307 25.6917 29.6882 25.5756C29.5858 25.299 29.6109 25.0224 29.6932 24.7485C29.8833 24.1177 30.2395 23.5729 30.6379 23.0529C31.1784 22.346 31.8468 21.7627 32.5334 21.1956C34.141 19.8669 35.9268 18.8133 37.815 17.915C39.5289 17.1 41.3019 16.4353 43.1437 15.95C43.3376 15.8987 43.4609 15.8007 43.5521 15.6233C44.4419 13.8914 45.152 12.0944 45.6539 10.2194C46.0592 8.70726 46.298 7.17364 46.2597 5.60761C46.2369 4.64975 45.9962 3.74541 45.4719 2.92509C44.8564 1.9612 43.7889 1.75659 42.8118 2.17222C42.121 2.46575 41.5449 2.91943 41.0028 3.4157C39.8731 4.45004 38.9258 5.63587 38.0313 6.86277C36.1432 9.45372 34.5235 12.2037 32.9634 14.9895C32.3981 15.9993 31.8147 17.0005 31.2089 17.9874C30.9628 18.3887 30.6487 18.7531 30.3369 19.1114C30.1997 19.2697 29.9969 19.3771 29.8149 19.4939C29.7237 19.5527 29.5989 19.5602 29.5483 19.4449C29.4003 19.1091 29.2161 18.7764 29.1457 18.4233C29.0712 18.0465 29.0808 17.6464 29.1063 17.2601C29.1453 16.6719 29.194 16.0811 29.303 15.5023C29.4583 14.6809 29.6581 13.8658 29.8632 13.0534C30.4389 10.7696 31.168 8.53317 32.1431 6.37894C32.3614 5.89625 32.6029 5.42297 32.8398 4.94894C32.8815 4.86567 32.9526 4.79558 33.0144 4.72361C33.106 4.61659 33.2149 4.63091 33.2852 4.73077C33.3834 4.86943 33.4703 5.02016 33.5329 5.17691C33.5808 5.29599 33.4641 5.45085 33.3335 5.54355C33.2447 5.60685 33.1531 5.69088 33.1083 5.78622C32.5643 6.93813 32.1941 8.15146 31.7973 9.35462C31.1761 11.2376 30.6 13.1329 30.1491 15.0626C29.9308 15.9993 29.7176 16.9376 29.6453 17.8988C29.626 18.1547 29.631 18.412 29.6298 18.6687C29.6298 18.7229 29.6526 18.7775 29.6735 18.874Z" fill="white"/>
</g>
<mask id="mask1_7_578" style="mask-type:luminance" maskUnits="userSpaceOnUse" x="0" y="0" width="16" height="27">
<path fill-rule="evenodd" clip-rule="evenodd" d="M0 0.227051H15.9474V26.9998H0V0.227051Z" fill="white"/>
</mask>
<g mask="url(#mask1_7_578)">
<path fill-rule="evenodd" clip-rule="evenodd" d="M10.8869 17.2218C10.8489 17.1979 10.8344 17.1833 10.8176 17.179C10.7816 17.169 10.744 17.1574 10.7075 17.1586C10.3187 17.1698 9.92798 17.1617 9.54174 17.2006C8.54156 17.3017 7.58379 17.5659 6.70193 18.0804C6.11774 18.4206 5.62956 18.8673 5.31216 19.4906C5.15216 19.8042 5.0383 20.1313 5.08258 20.4962C5.09821 20.6262 5.15216 20.7261 5.28872 20.7303C5.54063 20.738 5.7996 20.7723 6.0437 20.7276C6.67849 20.6111 7.26342 20.3438 7.8197 20.0098C8.97132 19.3182 9.93765 18.4025 10.8024 17.3634C10.8348 17.3252 10.8552 17.2762 10.8869 17.2218ZM1.00295 24.4305C1.02416 24.3792 1.05133 24.3294 1.06658 24.2754C1.59012 22.422 2.12221 20.5714 2.63272 18.7138C3.37467 16.0149 4.21821 13.3543 5.37728 10.812C6.14714 9.12415 7.04946 7.51148 8.03067 5.94664C8.74844 4.80222 9.51086 3.69175 10.3838 2.66768C10.9832 1.96491 11.6203 1.30457 12.3849 0.791951C12.7823 0.525423 13.2024 0.300937 13.6779 0.242308C14.4069 0.151665 14.9564 0.468337 15.3419 1.10052C15.6128 1.54525 15.7378 2.04552 15.8044 2.56007C15.9581 3.75115 15.9801 4.94918 15.9075 6.14644C15.8067 7.81735 15.4565 9.43812 14.933 11.0207C14.4363 12.5223 13.8011 13.9575 13.0097 15.3168C12.1654 16.7663 11.1901 18.1109 9.96184 19.2376C9.06286 20.0619 8.07979 20.7585 6.9397 21.1854C6.54305 21.3343 6.1356 21.4161 5.70993 21.3879C5.34416 21.3636 5.09002 21.177 4.96165 20.8252C4.90546 20.6705 4.82658 20.5239 4.78416 20.3662C4.68481 19.9971 4.80798 19.6611 4.97505 19.3464C5.42528 18.4997 6.09505 17.8876 6.92184 17.4606C7.69653 17.0602 8.52928 16.8585 9.38621 16.7806C9.79105 16.7443 10.2018 16.7598 10.6089 16.7767C10.7834 16.7837 10.9553 16.8546 11.128 16.8963L11.1685 16.9565C11.2061 16.8951 11.2392 16.8303 11.282 16.7736C11.8632 16.0049 12.3618 15.1799 12.8039 14.3193C13.6277 12.7171 14.2919 11.0446 14.8262 9.31739C15.3795 7.52768 15.5976 5.69014 15.5217 3.81518C15.5004 3.30025 15.4696 2.78339 15.3992 2.27425C15.3293 1.76897 15.1213 1.31845 14.6882 1.03032C14.2815 0.760323 13.8405 0.769194 13.4018 0.936594C12.7518 1.18538 12.207 1.60889 11.6898 2.07329C10.6245 3.02909 9.73374 4.14574 8.91998 5.33142C7.82044 6.93291 6.94156 8.66284 6.16202 10.4483C4.90472 13.3269 3.91198 16.3058 3.05133 19.3332C2.59253 20.9475 2.1743 22.5744 1.73039 24.1936C1.52388 24.9465 1.32481 25.7041 0.990674 26.4115C0.919232 26.5631 0.824348 26.7046 0.726488 26.8404C0.682581 26.9009 0.604069 26.9345 0.514767 27.0001C0.476069 26.9071 0.441092 26.847 0.426581 26.7814C0.407976 26.6965 0.421744 26.6016 0.393092 26.5222C0.362953 26.4381 0.315697 26.3374 0.246488 26.2954C0.0794181 26.1947 0.0083483 26.0512 0.00797621 25.8638C0.00723202 25.2555 -0.0150936 24.6457 0.0183948 24.0397C0.0920692 22.7017 0.284441 21.3768 0.505093 20.0584C0.727976 18.7254 0.962395 17.3943 1.21802 16.0678C1.53467 14.4219 1.84984 12.7749 2.21746 11.1403C2.61933 9.35481 3.08556 7.58477 3.51272 5.80469C3.63477 5.29594 3.71849 4.77715 3.82044 4.26261C3.82863 4.21979 3.83458 4.17582 3.84798 4.13455C3.91272 3.93707 4.08649 3.88461 4.2316 4.02038C4.42956 4.20591 4.61337 4.40108 4.6037 4.70734C4.60258 4.73665 4.60928 4.76944 4.59849 4.79412C4.40463 5.23422 4.4437 5.71945 4.34398 6.17845C4.13486 7.14698 3.94584 8.11975 3.75235 9.09214C3.41226 10.8024 3.06435 12.5119 2.73988 14.2256C2.44184 15.8013 2.16388 17.3811 1.88928 18.9618C1.66491 20.2543 1.45914 21.5511 1.24407 22.8456C1.1596 23.3539 1.07291 23.8619 0.987325 24.3699C0.984348 24.3876 0.981744 24.405 0.979139 24.4227C0.986953 24.4254 0.994767 24.4281 1.00295 24.4305Z" fill="white"/>
</g>
<path fill-rule="evenodd" clip-rule="evenodd" d="M26.4634 14.7634C25.9756 14.6777 25.9322 14.5878 26.1796 14.24C26.2504 14.1411 26.3473 14.0535 26.449 13.9829C26.5057 13.943 26.5968 13.949 26.6718 13.9347C26.6874 13.9501 26.7031 13.9656 26.7183 13.9813C26.6339 14.2419 26.5487 14.5032 26.4634 14.7634ZM24.6722 17.4543C24.9635 16.5429 25.3141 15.6575 25.7727 14.7954C25.7676 15.0638 25.99 15.1371 26.1961 15.2616C25.7152 16.0166 25.2825 16.7892 24.6722 17.4543ZM26.7555 15.345C26.7606 15.324 26.7621 15.3029 26.7684 15.2819C26.7711 15.2725 26.7746 15.2653 26.7778 15.2567C26.8106 15.1014 26.8614 14.954 26.9212 14.8104C26.9208 14.7848 26.92 14.763 26.9228 14.7442C26.9498 14.5476 27.0037 14.3506 26.9998 14.1551C26.9959 13.9599 26.9631 13.7554 26.8911 13.5745C26.7918 13.3268 26.5541 13.2704 26.3188 13.4114C26.2109 13.4756 26.1159 13.5595 26.01 13.6381C25.9494 13.6008 25.8876 13.5636 25.8063 13.514C25.7441 13.5655 25.6867 13.6095 25.6339 13.658C24.9838 14.2569 24.5377 14.9852 24.2074 15.7816C24.1437 15.9338 24.0604 15.9816 23.9017 15.9775C23.2899 15.9613 22.6769 15.9643 22.0659 15.9369C21.4721 15.9105 20.8841 15.8286 20.3388 15.5823C19.8791 15.3744 19.5296 15.0706 19.4123 14.5611C19.3685 14.3716 19.2759 14.1836 19.1664 14.0193C19.0042 13.7761 18.8466 13.7351 18.5882 13.8821C18.3666 14.0088 18.1406 14.1577 17.978 14.3457C17.5182 14.8781 17.0847 15.4311 16.6516 15.9842C16.4788 16.2053 16.3349 16.4474 16.1774 16.6802C16.41 15.7977 16.6985 14.9364 17.0917 14.1178C17.3666 14.0596 17.4279 13.9708 17.3951 13.7136C17.3642 13.4704 17.2438 13.276 17.0601 13.1124C16.9061 12.9756 16.7782 12.9542 16.634 13.1012C16.4678 13.2715 16.3154 13.4632 16.1973 13.6678C15.8564 14.2592 15.6293 14.8976 15.4291 15.5439C15.238 16.1628 15.0746 16.7885 15.0179 17.4344C14.9901 17.7461 14.9495 18.0623 15.288 18.2492C15.2751 18.43 15.2575 18.5943 15.2532 18.7598C15.2497 18.9068 15.3232 18.953 15.4428 18.8665C15.5789 18.768 15.72 18.6582 15.8115 18.524C16.0734 18.1394 16.3189 17.7438 16.5573 17.3453C16.9491 16.6907 17.3353 16.032 17.8455 15.4548C18.1254 15.1383 18.4401 14.8487 18.7548 14.5626C18.8951 14.4352 18.9905 14.4694 19.0761 14.6405C19.1289 14.7469 19.1781 14.8578 19.2071 14.9721C19.3095 15.3755 19.571 15.6643 19.9221 15.8789C20.433 16.1914 21.0167 16.2858 21.605 16.3147C22.3341 16.3512 23.0659 16.3463 23.7961 16.3587C23.8517 16.3598 23.908 16.3591 23.9799 16.3591C23.9553 16.4493 23.9373 16.5125 23.9205 16.576C23.8091 16.99 23.7074 17.4058 23.7164 17.8371C23.718 17.9093 23.7219 18.0145 23.7684 18.0476C24.0092 18.2183 24.0424 18.4428 23.9928 18.6992C23.9893 18.7176 23.994 18.7368 23.9955 18.756C24.017 19.0038 24.1234 19.0669 24.3403 18.9267C24.51 18.8169 24.666 18.6778 24.7981 18.5278C25.3685 17.8777 25.786 17.1332 26.1949 16.385C26.3798 16.0463 26.5459 15.697 26.7234 15.3481C26.7328 15.3469 26.7449 15.3462 26.7555 15.345Z" fill="white"/>
</g>
</svg>
