<svg width="206" height="33" viewBox="0 0 206 33" fill="none" xmlns="http://www.w3.org/2000/svg">
<path fill-rule="evenodd" clip-rule="evenodd" d="M150.298 1.95209C149.626 0.211893 148.008 -0.0639551 146.234 0.919752C144.46 1.90384 140.847 4.60875 137.398 11.6281C133.857 18.8358 132.201 28.4043 131.669 29.6057C133.346 18.0174 135.728 7.47856 136.06 6.34401C136.392 5.20908 135.244 3.76297 134.704 4.6494C134.293 5.32459 129.83 22.5218 130.093 30.9595C130.127 32.0397 130.614 32.1077 130.725 32.7791C130.837 33.4505 131.663 32.7814 132.868 28.0965C134.072 23.4113 136.148 16.8669 138.844 11.3157C142.05 4.71438 144.963 2.60296 146.169 1.68688C147.375 0.770809 148.622 0.389713 148.662 3.91077C148.689 6.21444 148.472 10.6432 145.228 16.7525C141.942 22.9405 138.851 24.2825 135.349 24.5097C135.111 24.5253 135.028 24.8817 134.846 25.0382C134.618 25.2354 134.504 25.5158 135.191 25.6082C137.008 25.8517 141.412 25.1443 144.193 22.2049C151.604 14.3687 151.791 5.81929 150.298 1.95209Z" fill="#F0F0F0"/>
<path fill-rule="evenodd" clip-rule="evenodd" d="M200.03 17.5697C199.678 17.344 199.184 16.9952 199.45 16.2748C199.679 15.6509 200.103 15.9267 200.196 16.2436C200.321 16.6726 200.302 17.1642 200.195 17.665C200.139 17.6354 200.083 17.6039 200.03 17.5697ZM191.351 16.8109C191.522 17.2049 190.518 18.4424 188.97 18.8573C189.274 18.2414 189.667 17.7 189.963 17.3656C190.449 16.8162 191.132 16.3036 191.351 16.8109ZM168.565 30.5987C166.419 30.6512 169.325 27.1107 173.809 24.7379C175.867 23.6486 178.046 22.8374 180.09 22.2165C175.172 28.3589 170.604 30.549 168.565 30.5987ZM205.716 18.0507C203.385 18.0549 201.997 18.1039 201.058 17.9397C201.122 16.9256 200.91 16.1232 200.408 15.6676C199.788 15.1045 198.55 15.6737 198.801 17.2015C198.898 17.798 199.332 18.2122 199.943 18.5032C199.606 19.3801 199.083 20.1967 198.658 20.6625C197.86 21.5383 196.115 22.7234 195.733 21.7195C195.351 20.7161 196.601 17.3322 198.413 15.9742C198.912 15.6003 198.174 15.4058 197.563 15.6824C196.697 16.0734 195.799 17.0366 195.163 18.2627C195.137 18.2787 195.109 18.3178 195.08 18.3869C193.827 21.4228 189.811 22.7697 188.996 21.8863C188.538 21.3916 188.443 20.7727 188.54 20.1431C188.562 20.1351 188.588 20.1268 188.608 20.1192C190.446 19.8874 192.44 18.9447 192.949 17.344C193.685 15.0331 189.726 15.1383 187.978 18.0127C187.761 18.3702 187.554 18.8106 187.392 19.2855C186.537 19.4858 185.584 19.6944 184.547 19.9436C188.898 12.1108 188.182 5.36394 187.273 2.5268C186.217 -0.768939 182.56 -0.580861 180.448 1.59819C179.026 3.06444 174.664 6.56688 168.013 20.6496C167.576 21.5759 167.378 21.8753 167.357 21.2343C167.231 17.4329 170.092 8.92071 171.751 5.93425C172.111 5.28643 171.89 4.97562 171.735 4.59795C171.58 4.22027 171.165 3.75558 170.756 4.26396C169.708 5.56531 165.582 16.2577 166.707 21.7693C166.888 22.6592 167.522 23.3868 168.746 21.1082C175.406 8.71667 178.752 4.48472 181.223 2.12823C183.034 0.400567 185.054 0.484917 185.552 2.84027C186.041 5.15838 186.073 14.0144 181.112 20.881C178.978 21.5467 176.594 22.4662 173.991 23.8515C166.882 27.6355 166.759 31.0684 168.225 31.6843C169.683 32.2968 178.674 29.4581 183.789 21.2347C185.099 20.93 186.241 20.6994 187.113 20.509C186.966 21.8141 187.347 23.1326 188.937 23.7375C190.497 24.3317 193.06 22.791 194.304 21.3483C194.288 21.6622 194.291 21.9775 194.325 22.2918C194.513 24.0756 195.94 24.0696 196.838 23.8313C198.502 23.3898 200.235 21.533 200.798 19.4622C200.856 19.2517 200.903 19.0465 200.943 18.8459C202.592 19.2475 204.732 19.1666 205.648 19.197C205.995 19.2088 205.914 18.0503 205.716 18.0507Z" fill="#F0F0F0"/>
<path fill-rule="evenodd" clip-rule="evenodd" d="M162.458 17.6306C162.105 17.4071 161.705 16.9421 161.992 16.2749C162.255 15.6639 162.645 15.9268 162.737 16.2437C162.871 16.7016 162.842 17.2301 162.716 17.7658C162.613 17.7179 162.523 17.6716 162.458 17.6306ZM165.375 18.2134C164.626 18.2134 164.047 18.142 163.594 18.0447C163.68 16.9801 163.47 16.1388 162.951 15.6677C162.33 15.1046 161.109 15.7273 161.247 17.1875C161.313 17.8806 161.786 18.3475 162.426 18.6557C162.09 19.4741 161.6 20.2238 161.2 20.6622C160.402 21.5384 158.657 22.7235 158.275 21.7196C157.893 20.7162 159.143 17.3323 160.956 15.9743C161.455 15.6004 160.717 15.4059 160.105 15.6825C159.705 15.8638 159.298 16.1704 158.912 16.5655C158.909 16.5678 158.906 16.5667 158.904 16.5693C158.888 16.5872 158.873 16.6012 158.858 16.6187C158.843 16.6339 158.829 16.6491 158.815 16.6643C157.506 18.093 156.536 17.6469 155.836 17.0686C154.955 16.3433 155.134 15.1848 154.307 15.0434C153.339 14.8789 150.653 19.1682 150.388 19.764C150.802 17.9281 151.954 15.5514 152.383 14.8455C152.976 13.8705 151.719 12.6094 151.165 13.2409C149.901 14.6844 148.119 19.8609 148.502 22.7011C148.578 23.2691 148.818 23.1061 149.064 23.4294C149.534 24.0461 150.058 23.3082 150.717 21.6839C151.684 19.2982 153.512 17.0055 154.106 16.6278C154.719 16.2384 154.436 17.1355 155.459 17.9809C155.887 18.3399 156.598 18.7191 157.491 18.7073C157.006 19.7997 156.736 21.057 156.867 22.2919C157.056 24.0758 158.482 24.0697 159.38 23.8314C161.044 23.3899 162.777 21.5331 163.34 19.4623C163.384 19.3039 163.416 19.1523 163.449 18.9999C164.079 19.1424 164.746 19.196 165.308 19.1971C165.655 19.1979 165.573 18.2134 165.375 18.2134Z" fill="#F0F0F0"/>
<path d="M13.4132 6.6689C13.461 6.67044 13.4989 6.70618 13.5012 6.75394C13.574 8.42668 13.7168 11.7281 13.7426 12.3354C13.7447 12.3883 13.7019 12.4322 13.6488 12.4322H12.9938C12.9522 12.4321 12.9165 12.4043 12.9059 12.3638C12.2292 9.83694 10.2225 7.45108 7.44851 7.4509C5.34917 7.4509 4.44279 8.80944 4.44272 10.3326C4.44272 12.5557 5.96599 13.0911 9.09462 14.1203C12.4291 15.2319 14.6527 16.8785 14.6527 20.2541C14.6526 21.6138 14.2237 22.9465 13.333 23.9852C12.3298 25.1552 10.8785 25.8417 9.38787 26.1455C8.78853 26.2675 7.78886 26.3328 6.89818 26.3322L0.286406 26.0761C0.237266 26.0743 0.197959 26.0343 0.196477 25.9852L0 19.3724C-0.00177576 19.3194 0.0408362 19.2766 0.0938396 19.2766H0.794704C0.836154 19.2766 0.871126 19.3015 0.882678 19.3412C1.53383 21.5747 3.98612 25.3586 7.28332 25.3586C9.83589 25.3586 10.8237 23.9591 10.8238 21.9833C10.8238 19.8425 9.01275 18.9782 6.04874 18.0724C3.37281 17.2489 0.531814 15.6847 0.531757 12.0207C0.531757 12.0022 0.532441 11.9835 0.532735 11.965C0.552869 9.91335 1.76193 8.14138 3.58252 7.23878C4.90525 6.58289 6.34825 6.52817 7.79357 6.52521H8.43383L13.4132 6.6689ZM125.04 6.6689C125.088 6.67038 125.127 6.70612 125.129 6.75394C125.202 8.42668 125.344 11.7281 125.37 12.3354C125.372 12.3881 125.33 12.432 125.277 12.4322H124.621C124.579 12.432 124.544 12.4042 124.533 12.3638C123.856 9.83689 121.85 7.45094 119.076 7.4509C116.976 7.4509 116.071 8.80944 116.071 10.3326C116.071 12.5557 117.593 13.0911 120.722 14.1203C124.056 15.2319 126.28 16.8785 126.28 20.2541C126.28 21.6138 125.851 22.9465 124.96 23.9852C123.957 25.1551 122.505 25.8417 121.015 26.1455C120.416 26.2675 119.416 26.3328 118.525 26.3322L111.913 26.0761C111.864 26.0742 111.825 26.0342 111.824 25.9852L111.627 19.3724C111.626 19.3195 111.668 19.2767 111.721 19.2766H112.423C112.464 19.2767 112.499 19.3016 112.511 19.3412C113.162 21.5747 115.613 25.3585 118.91 25.3586C121.463 25.3586 122.452 23.9591 122.452 21.9833C122.452 19.8424 120.64 18.9782 117.676 18.0724C115 17.2489 112.159 15.6846 112.159 12.0207C112.159 12.0022 112.16 11.9835 112.16 11.965C112.18 9.91342 113.389 8.14141 115.21 7.23878C116.532 6.58292 117.975 6.52817 119.421 6.52521H120.061L125.04 6.6689ZM24.8685 6.47927C29.1045 6.47929 32.3942 7.09645 32.3942 12.5661C32.3942 16.267 32.1479 20.585 32.1479 21.9423C32.1479 22.5594 32.6824 23.9579 33.8751 23.9579C34.4655 23.9579 34.8299 23.6227 35.0618 23.1045C35.0802 23.0635 35.1205 23.0362 35.1654 23.0371L35.5857 23.0439C35.6361 23.0448 35.6729 23.0942 35.662 23.1436C35.2089 25.1682 34.0571 26.2198 31.7774 26.2198C29.5569 26.2198 28.4056 25.2328 27.6651 23.5053C27.6635 23.5016 27.6436 23.4567 27.6035 23.4564C27.5641 23.4564 27.5436 23.5014 27.5419 23.5053C26.1437 25.109 24.375 26.3019 21.5782 26.3019C18.7406 26.3019 16.6839 24.4921 16.6839 21.8191C16.6841 18.3646 18.6581 17.2545 20.7141 16.5142C23.1407 15.6093 26.1847 14.7868 27.583 13.8818V11.5378C27.583 10.5095 27.5419 7.38369 24.5811 7.38345C24.4816 7.38345 24.3818 7.38787 24.2829 7.39616C23.8159 7.43345 23.324 7.55147 22.9447 7.83994C22.5427 8.14581 22.2206 8.82102 22.4355 9.32085C22.476 9.41501 22.5341 9.50103 22.588 9.58868C22.8508 10.0179 23.0073 10.4982 23.0073 11.0041C23.0073 12.4026 21.8954 13.5411 20.5079 13.5837C19.2395 13.6227 18.1753 12.6091 18.0279 11.3491C17.9755 10.9005 18.0275 10.4738 18.156 10.0892C18.1581 10.0673 18.1698 10.0458 18.1775 10.0237C18.1875 9.99626 18.1989 9.96935 18.2098 9.94253C18.9797 7.90298 21.9853 6.47927 24.8685 6.47927ZM67.8802 6.46754C70.7398 6.46754 72.6548 7.35804 73.6601 8.69232C73.6694 8.70066 73.8055 8.87009 73.9622 9.15076C73.9719 9.16838 73.9828 9.18564 73.9925 9.20355C74.0303 9.27453 74.0687 9.35309 74.1069 9.43619C74.1181 9.46073 74.1321 9.48399 74.143 9.50853C74.289 9.85112 74.4176 10.2821 74.4363 10.7627C74.4508 10.883 74.4607 11.005 74.4607 11.1292C74.4607 12.1875 73.9125 13.1168 73.0864 13.6531C73.0023 13.7274 72.8733 13.7995 72.7061 13.8623C72.3241 14.0379 71.9 14.1379 71.452 14.1379C70.6673 14.1379 69.8311 13.8874 69.2771 13.31C68.0652 12.0469 68.5157 10.1006 69.6935 9.02271C69.8181 8.90841 69.9198 8.81278 69.9711 8.70796C70.4507 7.7264 68.5415 7.5525 67.6994 7.66204C66.4299 7.82727 65.5177 8.32195 64.8754 9.41371C64.0372 10.8391 63.7319 12.495 63.6232 14.135C63.6129 14.293 63.6091 14.4497 63.6017 14.6071C63.5928 14.7795 63.5814 14.9523 63.5773 15.1252C63.5666 15.54 63.5576 15.9618 63.5528 16.3842C63.5576 16.8074 63.5666 17.2297 63.5773 17.6442C63.5856 17.9749 63.6023 18.3042 63.6242 18.6334C63.7326 20.2734 64.0373 21.9297 64.8754 23.3547L64.8783 23.3596C65.5206 24.4486 66.4315 24.9418 67.6994 25.1064C68.5414 25.2165 70.4501 25.0428 69.9711 24.0615C69.9198 23.9569 69.8181 23.8604 69.6935 23.7467C68.5157 22.6686 68.0651 20.7216 69.2771 19.4585C69.8311 18.8815 70.6674 18.6305 71.452 18.6305C71.9 18.6305 72.3241 18.7313 72.7061 18.9071C72.8731 18.9695 73.0023 19.0412 73.0864 19.1154C73.9125 19.6519 74.4607 20.5809 74.4607 21.6392C74.4607 21.7639 74.4508 21.886 74.4363 22.0068C74.4176 22.4873 74.289 22.9183 74.143 23.2609C74.1321 23.2851 74.1181 23.3081 74.1069 23.3323C74.0687 23.4151 74.0304 23.4942 73.9925 23.5649C73.9827 23.583 73.972 23.6006 73.9622 23.6187C73.8044 23.9015 73.6676 24.0713 73.6601 24.0771C72.6548 25.4114 70.7398 26.3009 67.8802 26.3009C66.0711 26.3009 64.3829 25.8146 62.9439 24.9481C62.9424 24.9472 62.9404 24.9457 62.939 24.9451C62.7803 24.8495 62.6259 24.7479 62.4737 24.6431C62.4373 24.6182 62.4003 24.5933 62.3642 24.5678C62.2276 24.4708 62.0937 24.3702 61.9625 24.2658C61.9148 24.2279 61.8678 24.1882 61.8207 24.1495C61.6982 24.0477 61.5765 23.9449 61.459 23.8367C61.4091 23.7911 61.3622 23.7426 61.3134 23.6959C60.9705 23.3654 60.6518 23.0076 60.3613 22.6236C60.2868 22.5254 60.2114 22.4272 60.1404 22.3254C60.0792 22.2373 60.0217 22.1458 59.9635 22.0557C59.8913 21.9444 59.8205 21.8322 59.7533 21.7174C59.701 21.6284 59.6502 21.538 59.6008 21.4467C59.5329 21.3223 59.4687 21.1957 59.4063 21.0674C59.3637 20.9798 59.3212 20.8919 59.2812 20.8025C59.2155 20.6563 59.1544 20.5067 59.0955 20.3558C59.0656 20.2794 59.0337 20.2039 59.0055 20.1261C58.9221 19.8953 58.8446 19.6604 58.7778 19.4194C58.731 19.2516 58.6896 19.0822 58.6527 18.912C58.6156 18.7415 58.5825 18.5696 58.552 18.3979C58.5277 18.2607 58.506 18.1231 58.4865 17.9854C58.4732 17.8897 58.4593 17.7943 58.4484 17.699C58.4247 17.4891 58.4074 17.2789 58.3956 17.0685C58.3917 17.003 58.3894 16.9374 58.3868 16.872C58.3859 16.8458 58.3861 16.8191 58.3858 16.7928V16.7645C58.3852 16.7556 58.3851 16.7466 58.3848 16.7381C58.3825 16.6911 58.3795 16.6447 58.378 16.5983C58.3777 16.5836 58.3785 16.5687 58.378 16.5543C58.3771 16.4978 58.3799 16.4411 58.3799 16.3842C58.3799 16.3281 58.3771 16.2716 58.378 16.2151C58.3786 16.2003 58.3777 16.1856 58.378 16.1711C58.3795 16.1238 58.3825 16.0771 58.3848 16.0304C58.3851 16.0221 58.3852 16.0126 58.3858 16.004V15.9766C58.3861 15.9503 58.3859 15.9231 58.3868 15.8965C58.3894 15.8311 58.3917 15.766 58.3956 15.701C58.4074 15.4902 58.4247 15.28 58.4484 15.0705C58.4593 14.9748 58.4732 14.8791 58.4865 14.7841C58.506 14.6458 58.5277 14.5079 58.552 14.3706C58.6127 14.0272 58.6842 13.6858 58.7778 13.3501C59.935 9.19512 63.5745 6.46754 67.8802 6.46754ZM107.989 6.52814C108.109 6.5286 108.205 6.62399 108.205 6.74319C108.205 9.18107 108.202 11.777 108.202 14.2054C108.202 16.8119 108.202 19.4191 108.202 22.0254C108.202 22.0311 108.203 22.0362 108.203 22.042C108.202 22.0691 108.202 23.3868 108.202 23.3997C108.202 24.3046 108.49 24.8804 109.23 25.2091C109.399 25.2812 109.556 25.3466 109.714 25.4046C109.83 25.4469 109.909 25.5544 109.909 25.6773V25.8288C109.909 25.9887 109.778 26.1191 109.618 26.1191H103.729C103.609 26.1191 103.513 26.0213 103.513 25.9021V23.0527C103.512 23.0485 103.502 22.999 103.451 22.9989C103.424 22.9989 103.392 23.0493 103.39 23.0527C101.909 24.6156 100.388 26.2608 96.8923 26.2608C93.1083 26.2608 91.5864 23.4232 91.5864 19.5572V10.4655C91.5864 9.60179 91.3769 8.52035 90.7604 8.10875C90.5253 7.95241 90.2145 7.80587 89.8787 7.69038C89.7907 7.6601 89.7302 7.57896 89.7302 7.48609V6.73928C89.7302 6.61965 89.8275 6.52228 89.9472 6.52228L96.1318 6.52814C96.2516 6.52853 96.3488 6.62558 96.3488 6.74515L96.3449 9.85163V14.6697H96.3576V20.1329C96.3576 22.8885 97.5912 24.2462 99.1953 24.2462C101.582 24.2462 102.818 22.779 103.351 21.8729C103.418 21.7581 103.472 21.5574 103.472 21.4242C103.468 17.7216 103.601 13.9914 103.461 10.2915C103.434 9.58261 103.278 8.53419 102.642 8.10875C102.408 7.95246 102.099 7.80584 101.765 7.69038C101.677 7.66021 101.617 7.57963 101.617 7.48706V6.73928C101.617 6.61966 101.714 6.52199 101.834 6.52228L107.989 6.52814ZM83.2591 1.03266C83.3518 1.0329 83.4271 1.10813 83.4273 1.20079V6.51152H88.435C88.5281 6.51166 88.6031 6.58744 88.6031 6.68063V7.50759C88.6031 7.60078 88.5281 7.67656 88.435 7.6767H83.4683V20.0508C83.4683 22.107 84.0854 23.7114 86.2649 23.7115C87.1897 23.7115 87.5391 23.3759 87.8651 22.8562C87.8879 22.8206 87.9272 22.7976 87.9697 22.7976L88.4174 22.7966C88.4758 22.7969 88.5167 22.8567 88.4966 22.9119C87.7545 24.9653 86.5621 26.2198 84.0441 26.2198C80.5073 26.2197 78.7804 24.1229 78.7803 20.4623V7.6767H75.2056C75.1128 7.67649 75.0374 7.60073 75.0374 7.50759V6.68063C75.0374 6.58749 75.1128 6.51174 75.2056 6.51152H78.8624V1.20079C78.8626 1.10809 78.9378 1.03284 79.0305 1.03266H83.2591ZM49.8884 6.47927C53.6724 6.47927 55.4826 9.02912 55.4826 12.9366V23.2668C55.4827 24.1712 55.7702 24.7465 56.51 25.0751C56.7142 25.1627 56.904 25.2399 57.0955 25.3068C57.1515 25.3261 57.1893 25.3779 57.1893 25.4368V25.9735C57.1893 26.0503 57.1271 26.1131 57.0505 26.1132H49.1162C49.0394 26.1131 48.9774 26.0503 48.9774 25.9735V25.3029C48.9775 25.2363 49.0261 25.1798 49.0918 25.167C49.3491 25.1176 49.5901 25.0519 49.8063 24.9617C50.4646 24.7151 50.7115 24.056 50.7115 23.1514V12.8946C50.7114 10.0573 49.3548 8.65833 47.7506 8.6581C45.1857 8.6581 43.7488 10.3917 43.2815 11.3443C43.2718 11.3641 43.2679 11.3843 43.2679 11.4068V23.0996C43.2679 24.0043 43.5554 24.6216 44.2131 24.95C44.4615 25.0744 44.7108 25.1665 44.9628 25.2394C45.0214 25.2566 45.0614 25.3094 45.0616 25.3703V25.9735C45.0616 26.0504 44.9994 26.1132 44.9228 26.1132H36.9308C36.8538 26.1132 36.791 26.0504 36.791 25.9735V25.2579C36.791 25.1929 36.8362 25.1383 36.8995 25.124C37.0875 25.0814 37.2754 25.0307 37.4694 24.9617C38.2503 24.715 38.5378 24.056 38.5378 23.1514V10.4655C38.5377 9.60182 38.3285 8.69693 37.7118 8.28568C37.4642 8.12076 37.1332 7.96756 36.7773 7.84972C36.7209 7.83068 36.6825 7.77873 36.6825 7.71873V6.67281C36.6827 6.59628 36.745 6.53401 36.8213 6.53401L43.132 6.52912C43.209 6.52882 43.2718 6.59093 43.2718 6.66792L43.2679 9.85163H43.349C44.8709 8.2888 46.3934 6.47938 49.8884 6.47927ZM27.624 15.1565C24.0872 16.3492 21.7016 17.3778 21.7014 20.955C21.7014 23.2993 22.689 24.2042 24.1696 24.2042C25.916 24.2041 26.6287 23.4764 27.3787 22.4271C27.4313 22.3534 27.4607 22.2642 27.4627 22.1739L27.624 15.1565Z" fill="#F0F0F0"/>
</svg>
