<svg preserveAspectRatio="none" width="100%" height="100%" overflow="visible" style="display: block;" viewBox="0 0 30 30" fill="none" xmlns="http://www.w3.org/2000/svg">
<g id="youtubemusic-svgrepo-com 1" clip-path="url(#clip0_0_14)">
<path id="Vector" d="M12.2869 19.1475V10.8534L19.4709 15.0009L12.2869 19.1475ZM15 7.70344C10.9706 7.70344 7.70344 10.9697 7.70344 15C7.70344 19.0303 10.9697 22.2966 15 22.2966C19.0294 22.2966 22.2966 19.0303 22.2966 15C22.29 10.9725 19.0266 7.71 15 7.70344ZM15 23.3222C10.4034 23.3222 6.67781 19.5956 6.67781 15C6.67781 10.4044 10.4044 6.67781 15 6.67781C19.5966 6.67781 23.3222 10.4044 23.3222 15C23.3222 19.5956 19.5966 23.3222 15 23.3222ZM15 0.94125C7.23563 0.94125 0.94125 7.23563 0.94125 15C0.94125 22.7644 7.23563 29.0588 15 29.0588C22.7644 29.0588 29.0588 22.7644 29.0588 15C29.0559 7.23656 22.7625 0.944062 15 0.94125Z" fill="var(--fill-0, #816550)"/>
</g>
<defs>
<clipPath id="clip0_0_14">
<rect width="30" height="30" fill="white"/>
</clipPath>
</defs>
</svg>
